{"title":"Naruto Shippuuden 257 mkv 60 mb Bzingaz.mkv","uid":7161991,"size":62493379,"categoryP":"video","categoryS":"tv_shows","magnet":"?xt=urn:btih:6394b878c53e33ab741679c514a7e2c92845d56a&amp;dn=Naruto+Shippuuden+257+mkv+60+mb+Bzingaz.mkv&amp;tr=udp%3A%2F%2Ftracker.openbittorrent.com%3A80&amp;tr=udp%3A%2F%2Fopen.demonii.com%3A1337&amp;tr=udp%3A%2F%2Ftracker.coppersurfer.tk%3A6969&amp;tr=udp%3A%2F%2Fexodus.desync.com%3A6969","seeders":0,"leechers":0,"uploader":"bzingaz","files":1,"time":1333643175,"description":"Naruto_Shippuuden_257 Eng Subbed BZINGAZ in mkv format 60 mb size.            \n                                                               \n                              Download**Enjoy**Seed\n\n\n\nScreenshots:\n                &lt;a href=&quot;\nhttp://image.bayimg.com/ganijaadn.jpg&quot; rel=&quot;nofollow&quot; target=&quot;_NEW&quot;&gt;\nhttp://image.bayimg.com/ganijaadn.jpg&lt;/a&gt;\n                &lt;a href=&quot;\nhttp://image.bayimg.com/ganilaadn.jpg&quot; rel=&quot;nofollow&quot; target=&quot;_NEW&quot;&gt;\nhttp://image.bayimg.com/ganilaadn.jpg&lt;/a&gt;\n\n\nFormat                           : Matroska\nFile size                        : 59.6 MiB\nDuration                         : 23mn 9s\nOverall bit rate                 : 360 Kbps\n\n\nVideo\nID                               : 1\nFormat                           : AVC\nFormat/Info                      : Advanced Video Codec\nFormat profile                   : &lt;a class=&quot;__cf_email__&quot; href=&quot;/cdn-cgi/l/email-protection&quot; data-cfemail=&quot;662e0f010e262a554857&quot;&gt;[email&amp;#160;protected]&lt;/a&gt;&lt;script cf-hash='f9e31' type=&quot;text/javascript&quot;&gt;\n/* &lt;![CDATA[ */!function(){try{var t=&quot;currentScript&quot;in document?document.currentScript:function(){for(var t=document.getElementsByTagName(&quot;script&quot;),e=t.length;e--;)if(t[e].getAttribute(&quot;cf-hash&quot;))return t[e]}();if(t&amp;&amp;t.previousSibling){var e,r,n,i,c=t.previousSibling,a=c.getAttribute(&quot;data-cfemail&quot;);if(a){for(e=&quot;&quot;,r=parseInt(a.substr(0,2),16),n=2;a.length-n;n+=2)i=parseInt(a.substr(n,2),16)^r,e+=String.fromCharCode(i);e=document.createTextNode(e),c.parentNode.replaceChild(e,c)}}}catch(u){}}();/* ]]&gt; */&lt;/script&gt;\nFormat settings, CABAC           : Yes\nFormat settings, ReFrames        : 8 frames\nCodec ID                         : V_MPEG4/ISO/AVC\nDuration                         : 23mn 9s\nBit rate                         : 310 Kbps\nWidth                            : 848 pixels\nHeight                           : 480 pixels\nDisplay aspect ratio             : 16:9\nFrame rate mode                  : Variable\nFrame rate                       : 23.976 fps\nColor space                      : YUV\nChroma subsampling               : 4:2:0\nBit depth                        : 8 bits\nScan type                        : Progressive\nBits/(Pixel*Frame)               : 0.032\nStream size                      : 50.5 MiB (85%)\n\nAudio\nID                               : 2\nFormat                           : Vorbis\nFormat settings, Floor           : 1\nCodec ID                         : A_VORBIS\nDuration                         : 23mn 9s\nBit rate mode                    : Constant\nBit rate                         : 48.0 Kbps\nChannel(s)                       : 2 channels\nSampling rate                    : 44.1 KHz\nCompression mode                 : Lossy\nStream size                      : 7.95 MiB (13%)\nWriting library                  : aoTuV Beta 5 (UTC 2006-10-24)\nLanguage                         : un\n\nText\nID                               : 3\nFormat                           : ASS\nCodec ID                         : S_TEXT/ASS\nCodec ID/Info                    : Advanced Sub Station Alpha\nCompression mode                 : Lossless\n","torrent":{"xt":"urn:btih:6394b878c53e33ab741679c514a7e2c92845d56a","amp;dn":"Naruto+Shippuuden+257+mkv+60+mb+Bzingaz.mkv","amp;tr":["udp%3A%2F%2Ftracker.openbittorrent.com%3A80","udp%3A%2F%2Fopen.demonii.com%3A1337","udp%3A%2F%2Ftracker.coppersurfer.tk%3A6969","udp%3A%2F%2Fexodus.desync.com%3A6969"],"infoHash":"6394b878c53e33ab741679c514a7e2c92845d56a","infoHashBuffer":{"type":"Buffer","data":[99,148,184,120,197,62,51,171,116,22,121,197,20,167,226,201,40,69,213,106]},"announce":[],"urlList":[]}}